P2
#
16 16
255
10 10 10 10 10 10 10 10 80 80 80 80 120 120 120 120
10 10 10 10 10 10 10 10 80 80 80 80 120 120 120 120
10 10 10 10 10 10 10 10 80 80 80 80 120 120 120 120
10 10 10 10 10 10 10 10 80 80 80 80 120 120 120 120
10 10 10 10 10 10 10 10 80 80 80 80 120 120 120 120
10 10 10 10 10 10 10 10 80 80 80 80 120 120 120 120
10 10 10 10 10 10 10 10 80 80 80 80 120 120 120 120
10 10 10 10 10 10 10 10 80 80 80 80 120 120 120 120
254 254 254 254 254 254 254 254 200 200 200 200 200 200 200 200
254 254 254 254 254 254 254 254 200 200 200 200 200 200 200 200
254 254 254 254 254 254 255 254 200 200 200 200 200 200 200 200
254 254 254 254 254 254 254 254 200 200 200 200 200 200 200 200
254 254 254 254 254 254 254 254 200 200 200 200 200 200 200 200
254 254 254 254 254 254 254 254 200 200 200 200 200 200 200 200
254 254 254 254 254 254 254 254 200 200 200 200 200 200 200 200
254 254 254 254 254 254 254 254 200 200 200 200 200 200 200 200
