P2
# pixels en noir et blanc
8 8
255
0 0 0 0 100 100 100 100
0 0 0 0 100 100 100 100
0 0 0 0 100 100 100 100
0 0 0 0 100 100 100 100
255 255 255 255 255 255 255 255
0 0 25 25 255 255 255 255
255 255 255 255 255 255 255 255
30 30 50 50 255 255 255 255
