P2
# test pour reequilibrage avl
4 4
255
0 0 0 0
1 1 5 5
0 0 0 0
50 50 255 255